<svg xmlns:mydata="http://www.w3.org/2000/svg" mydata:contrastcolor="671E75" mydata:template="Contrast" mydata:presentation="2.5" mydata:layouttype="undefined" mydata:specialfontid="undefined" mydata:id1="946" mydata:id2="547" mydata:companyname="syllabus" mydata:companytagline="" version="1.1" xmlns="http://www.w3.org/2000/svg" xmlns:xlink="http://www.w3.org/1999/xlink" viewBox="0 0 550 470"><g fill="none" fill-rule="none" stroke="none" stroke-width="1" stroke-linecap="butt" stroke-linejoin="miter" stroke-miterlimit="10" stroke-dasharray="" stroke-dashoffset="0" font-family="none" font-weight="none" font-size="none" text-anchor="none" style="mix-blend-mode: normal"><g data-paper-data="{&quot;isGlobalGroup&quot;:true,&quot;bounds&quot;:{&quot;x&quot;:165.67895124968283,&quot;y&quot;:114.99999999999997,&quot;width&quot;:218.6420975006344,&quot;height&quot;:240.00000000000003}}"><g data-paper-data="{&quot;isPrimaryText&quot;:true}" fill="#5f8fb4" fill-rule="nonzero"><path d="M179.33809,311.64409c-5.98526,-1.61163 -8.26951,-5.37156 -8.26951,-9.74598c0,-4.29741 1.823,-6.35064 5.73695,-6.35064c0.90286,0 1.80493,0.14301 2.68185,0.41175c3.4252,1.0498 6.14713,4.44985 8.06128,7.32029c0.15323,0.23023 0.23023,0.46047 0.38346,0.6907h0.30724v-5.78253c0,-0.69305 -0.41332,-1.31932 -1.05058,-1.59198l-1.41833,-0.60741c-2.83351,-1.21167 -5.88232,-1.83793 -8.96492,-1.84029c-6.67595,0 -11.12659,3.99017 -11.12659,9.97543c0,5.75502 3.68372,10.5129 10.74313,12.43098c5.75502,1.53462 7.17649,4.83409 7.17649,8.59482c0,4.98811 -1.34446,7.5018 -5.71809,7.5018c-5.31813,0 -8.80933,-5.25213 -11.43383,-9.18965c-0.15323,-0.23023 -0.23023,-0.46047 -0.38346,-0.6907h-0.30724v6.14555c0,0.76535 0.47304,1.43561 1.17631,1.73578c1.25646,0.53669 2.42019,1.28632 3.66722,1.87565c2.47362,1.16845 4.68637,1.52283 7.281,1.52283c7.36665,0 12.27775,-4.29741 12.27775,-10.74313c-0.00079,-5.29456 -3.68372,-9.74519 -10.82014,-11.66327z" data-paper-data="{&quot;glyphName&quot;:&quot;s&quot;,&quot;glyphIndex&quot;:0,&quot;firstGlyphOfWord&quot;:true,&quot;word&quot;:1}"></path><path d="M220.3824,294.91479l-6.93509,18.71726c-1.12419,3.42273 -5.87752,3.65299 -7.32901,0.35609l-8.3907,-19.07335h-1.96383c-2.83637,0 -4.7377,2.91203 -3.59707,5.50909l11.19664,25.49364c2.03867,4.64066 2.17929,9.89564 0.38652,14.63663c-0.8051,2.12995 -1.60528,4.26237 -2.41532,6.38821c-0.69079,1.76482 -1.76482,2.99262 -2.07156,2.99262c-2.17847,0 -2.18505,-3.96138 -5.79035,-1.65955c-0.96629,0.61678 -1.57732,1.66778 -1.57649,2.81417c0.00082,2.37666 1.5362,3.91039 3.91286,3.91039c2.07239,0 5.67932,-2.83884 7.28953,-7.13657l5.29445,-13.81179l14.58071,-39.13602h-2.5913z" data-paper-data="{&quot;glyphName&quot;:&quot;y&quot;,&quot;glyphIndex&quot;:1,&quot;word&quot;:1}"></path><path d="M230.50924,275.73115c-2.60328,0 -4.71466,2.11059 -4.71466,4.71466v52.83715h7.28964v-57.55181z" data-paper-data="{&quot;glyphName&quot;:&quot;l&quot;,&quot;glyphIndex&quot;:2,&quot;word&quot;:1}"></path><path d="M243.58501,275.73115c-2.60328,0 -4.71466,2.11059 -4.71466,4.71466v52.83715h7.28964v-57.55181z" data-paper-data="{&quot;glyphName&quot;:&quot;l&quot;,&quot;glyphIndex&quot;:3,&quot;word&quot;:1}"></path><path d="M281.29631,333.60549c-2.12002,-0.56262 -3.52342,-4.89067 -3.52342,-8.60975v-18.8767c0,-8.28758 -4.37363,-11.97051 -10.89636,-11.97051c-9.0545,0 -15.04054,7.36665 -15.04054,11.51005c0,3.06924 1.76485,5.14133 4.37363,5.14133c2.22532,0 3.75994,-2.14831 3.75994,-3.68372c0,-1.30439 -1.53462,-3.06924 -1.53462,-4.45064c0,-2.83901 3.22325,-7.98034 7.98034,-7.98034c2.45555,0 4.06718,2.68578 4.06718,8.74805v6.07483c0,2.07209 -1.35075,3.90531 -3.32619,4.53c-13.51142,4.26834 -16.8549,6.43944 -16.8549,12.33904c0,4.60386 3.45349,7.67389 8.67104,7.67389c2.63706,0 5.97504,-1.56369 10.10508,-5.50436c0.60033,-0.57283 1.61084,-0.28838 1.77585,0.5249c0.60898,3.01109 2.54906,4.596 4.8506,4.596h5.5853c0.04007,-0.00079 0.04558,-0.05186 0.00707,-0.06208zM270.48325,324.99574c0.00079,1.23524 -0.5964,2.39976 -1.59827,3.1211c-2.06738,1.48747 -4.12847,2.09724 -6.07483,2.09724c-3.14625,0 -5.21834,-1.84186 -5.21834,-4.60386c0,-6.54159 1.97466,-8.61211 9.71062,-11.26253c1.55662,-0.53354 3.18082,0.61212 3.18082,2.25754zM265.91003,337.09355h-0.19644c0,3.41184 -2.77615,6.18799 -6.18799,6.18799v0.19644c3.41184,0 6.18799,2.77615 6.18799,6.18799h0.19644c0,-3.41184 2.77615,-6.18799 6.18799,-6.18799v-0.19644c-3.41184,0 -6.18799,-2.77615 -6.18799,-6.18799z" data-paper-data="{&quot;glyphName&quot;:&quot;ï’&quot;,&quot;glyphIndex&quot;:4,&quot;word&quot;:1}"></path><path d="M302.69819,294.53163c-1.41125,0 -2.88537,0.3206 -4.33041,0.90993c-3.12896,1.27689 -6.56594,-0.90364 -6.56594,-4.28327v-15.42714h-2.57499c-2.60406,0 -4.71466,2.11059 -4.71466,4.71466v52.83715h0.46046l1.55819,-2.99695c0.42668,-0.82035 1.51026,-1.06473 2.21825,-0.46989c3.16903,2.66142 7.69275,4.23376 12.79793,4.23376c11.2036,0 18.72347,-8.05735 18.72347,-20.18187c0,-11.58627 -7.0602,-19.33638 -17.57231,-19.33638zM301.77726,333.05352c-4.1379,0 -7.95598,-3.14153 -9.87092,-7.95913c-0.06993,-0.1768 -0.10451,-0.36853 -0.10451,-0.55869v-18.56003c0,-4.12847 2.69521,-7.90019 6.70188,-8.89813c0.64198,-0.1603 1.27689,-0.24359 1.89293,-0.24359c6.98319,0 11.66406,7.13642 11.66406,17.87955c-0.00079,10.97258 -4.14497,18.34001 -10.28345,18.34001z" data-paper-data="{&quot;glyphName&quot;:&quot;b&quot;,&quot;glyphIndex&quot;:5,&quot;word&quot;:1}"></path><path d="M347.78525,294.91509v24.35277c0,5.24034 -4.15125,9.66112 -9.39238,9.71769c-0.04086,0.00079 -0.08172,0.00079 -0.12337,0.00079c-4.06718,0 -6.82918,-3.22325 -6.82918,-7.98034v-26.09091h-2.57499c-2.60328,0 -4.71466,2.11059 -4.71466,4.71466v21.37547c0,7.82712 4.29741,13.04545 10.74313,13.04545c2.751,0 5.44543,-1.14173 7.76975,-3.13132c2.01394,-1.72399 5.12247,-0.28681 5.12247,2.3644h3.68372l0.07701,-0.044c1.06394,-0.29859 2.50584,-0.66084 3.52971,-0.95393v-37.37072z" data-paper-data="{&quot;glyphName&quot;:&quot;u&quot;,&quot;glyphIndex&quot;:6,&quot;word&quot;:1}"></path><path d="M373.50091,311.64409c-5.98526,-1.61163 -8.26951,-5.37156 -8.26951,-9.74598c0,-4.29741 1.823,-6.35064 5.73695,-6.35064c0.90286,0 1.80493,0.14301 2.68185,0.41175c3.4252,1.0498 6.14713,4.44985 8.06128,7.32029c0.15323,0.23023 0.23023,0.46047 0.38346,0.6907h0.30724v-5.78253c0,-0.69305 -0.41332,-1.31932 -1.05058,-1.59198l-1.41833,-0.60741c-2.83351,-1.21167 -5.88232,-1.83793 -8.96492,-1.84029c-6.67595,0 -11.12659,3.99017 -11.12659,9.97543c0,5.75502 3.68372,10.5129 10.74313,12.43098c5.75502,1.53462 7.17649,4.83409 7.17649,8.59482c0,4.98811 -1.34446,7.5018 -5.71809,7.5018c-5.31813,0 -8.80933,-5.25213 -11.43383,-9.18965c-0.15323,-0.23023 -0.23023,-0.46047 -0.38346,-0.6907h-0.30724v6.14555c0,0.76535 0.47304,1.43561 1.17631,1.73578c1.25646,0.53669 2.42019,1.28632 3.66722,1.87565c2.47362,1.16845 4.68637,1.52283 7.281,1.52283c7.36665,0 12.27775,-4.29741 12.27775,-10.74313c-0.00079,-5.29456 -3.68372,-9.74519 -10.82014,-11.66327z" data-paper-data="{&quot;glyphName&quot;:&quot;s&quot;,&quot;glyphIndex&quot;:7,&quot;lastGlyphOfWord&quot;:true,&quot;word&quot;:1}"></path></g><g data-paper-data="{&quot;fillRule&quot;:&quot;evenodd&quot;,&quot;fillRuleOriginal&quot;:&quot;evenodd&quot;,&quot;isIcon&quot;:true,&quot;iconStyle&quot;:&quot;standalone&quot;,&quot;selectedEffects&quot;:{&quot;container&quot;:&quot;&quot;,&quot;transformation&quot;:&quot;&quot;,&quot;pattern&quot;:&quot;&quot;},&quot;bounds&quot;:{&quot;x&quot;:222.07880311425012,&quot;y&quot;:114.99999999999997,&quot;width&quot;:105.84239377149973,&quot;height&quot;:129.42711223830597},&quot;iconType&quot;:&quot;icon&quot;,&quot;rawIconId&quot;:&quot;15144&quot;,&quot;combineTerms&quot;:&quot;undefined&quot;,&quot;isDetailed&quot;:false,&quot;suitableAsStandaloneIcon&quot;:true}" fill-rule="evenodd"><g data-paper-data="{&quot;isPathIcon&quot;:true}"><path d="M277.51593,209.22608c-0.062,0.304 0.088,0.61 0.367,0.751c0.096,0.047 0.201,0.071 0.305,0.071c0.191,0 0.378,-0.082 0.512,-0.23c25.06202,-28.25603 13.05001,-44.47504 2.452,-58.78305c-7.93801,-10.71601 -15.43701,-20.84002 -8.00801,-35.03303c0.156,-0.298 0.071,-0.665 -0.2,-0.867c-0.271,-0.201 -0.65,-0.175 -0.886,0.061c-33.22203,32.57503 -20.03802,48.18504 -7.28401,63.27906l0.01,0.012c7.86101,9.30601 15.28401,18.09502 12.73201,30.73903z" fill-opacity="1" fill="#ffffff"></path><path d="M250.4419,181.17306l0.001,0.002c11.70001,14.59201 24.95902,31.13003 6.96201,55.91805c-0.117,0.158 -0.291,0.259 -0.484,0.279c-0.025,0.004 -0.047,0.004 -0.072,0.004c-0.168,0 -0.331,-0.062 -0.457,-0.174c-0.525,-0.473 -1.158,-1.027 -1.888,-1.664c-8.41901,-7.35701 -30.78503,-26.90302 -32.33903,-51.39205c-0.807,-12.71801 4.064,-25.11102 14.46801,-36.83303c0.217,-0.242 0.572,-0.3 0.854,-0.139c0.282,0.162 0.41,0.499 0.308,0.808c-4.07,12.34701 4.049,22.47202 12.64701,33.19103z" fill="#5f8fb4"></path><path d="M303.65095,157.19103c0.262,-0.185 0.615,-0.165 0.851,0.047c20.35802,18.05702 27.78802,37.95303 20.93302,56.02005c-6.74901,17.77202 -27.27302,31.16903 -47.74004,31.16903h-0.006c-3.336,0 -6.58101,-0.366 -9.65101,-1.082c-0.238,-0.056 -0.428,-0.231 -0.5,-0.463c-0.074,-0.231 -0.016,-0.484 0.147,-0.663c3.565,-3.93 7.20501,-7.71001 10.73001,-11.36201l0.003,-0.003c20.64902,-21.40902 38.48303,-39.89804 24.99602,-72.84407c-0.121,-0.295 -0.023,-0.634 0.237,-0.819z" fill-opacity="1" fill="#ffffff"></path></g></g></g></g></svg>
